#N canvas 941 125 1604 929 10;
#X obj 618 90 LFO~;
#X obj 384 358 Delay~;
#X obj 875 92 Scale;
#X obj 1139 186 r reset;
#X obj 1136 271 r reset;
#X obj 1145 51 r reset;
#X obj 878 48 r reset;
#X obj 875 176 s~ lfo;
#X obj 895 -105 inlet;
#X text 892 -127 reset all;
#X obj 895 -70 s reset;
#X obj 430 -68 inlet~;
#X text 428 -86 input audio;
#X obj 384 439 Mixer~;
#X obj 1169 377 r reset;
#X obj 330 568 output~;
#X obj 384 270 FrequencyShift~;
#X connect 0 0 2 0;
#X connect 2 0 7 0;
#X connect 3 0 16 2;
#X connect 4 0 1 2;
#X connect 5 0 2 2;
#X connect 6 0 0 2;
#X connect 8 0 10 0;
#X connect 14 0 13 3;
