#N canvas 61 22 1619 1006 10;
#X obj 160 500 env~;
#X floatatom 160 530 5 0 0 0 - - -;
#X obj 160 554 - 100;
#X obj 113 500 env~;
#X floatatom 113 530 5 0 0 0 - - -;
#X obj 113 554 - 100;
#X obj 66 500 env~;
#X floatatom 66 530 5 0 0 0 - - -;
#X obj 66 554 - 100;
#X obj 19 500 env~;
#X floatatom 19 530 5 0 0 0 - - -;
#X obj 1232 360 vu 30 200 empty empty -1 -8 0 10 -162280 -1 0 0;
#X obj 19 554 - 100;
#X obj 349 500 env~;
#X floatatom 349 530 5 0 0 0 - - -;
#X obj 349 554 - 100;
#X obj 302 500 env~;
#X floatatom 302 530 5 0 0 0 - - -;
#X obj 302 554 - 100;
#X obj 255 500 env~;
#X floatatom 255 530 5 0 0 0 - - -;
#X obj 255 554 - 100;
#X obj 207 500 env~;
#X floatatom 207 530 5 0 0 0 - - -;
#X obj 207 554 - 100;
#X obj 538 500 env~;
#X floatatom 538 530 5 0 0 0 - - -;
#X obj 538 554 - 100;
#X obj 491 500 env~;
#X floatatom 491 530 5 0 0 0 - - -;
#X obj 491 554 - 100;
#X obj 444 500 env~;
#X floatatom 444 530 5 0 0 0 - - -;
#X obj 444 554 - 100;
#X obj 397 500 env~;
#X floatatom 397 530 5 0 0 0 - - -;
#X obj 397 554 - 100;
#X obj 726 500 env~;
#X floatatom 726 530 5 0 0 0 - - -;
#X obj 726 554 - 100;
#X obj 679 500 env~;
#X floatatom 679 530 5 0 0 0 - - -;
#X obj 679 554 - 100;
#X obj 632 500 env~;
#X floatatom 632 530 5 0 0 0 - - -;
#X obj 632 554 - 100;
#X obj 585 500 env~;
#X floatatom 585 530 5 0 0 0 - - -;
#X obj 585 554 - 100;
#X obj 867 500 env~;
#X floatatom 867 530 5 0 0 0 - - -;
#X obj 867 554 - 100;
#X obj 820 500 env~;
#X floatatom 820 530 5 0 0 0 - - -;
#X obj 820 554 - 100;
#X obj 773 500 env~;
#X floatatom 773 530 5 0 0 0 - - -;
#X obj 773 554 - 100;
#X obj 958 97 lop~ 400;
#X floatatom 1028 323 5 0 0 0 - - -;
#X obj 1028 294 *;
#X obj 1028 265 t b f;
#X obj 989 155 unpack;
#X floatatom 989 183 5 0 0 0 - - -;
#X floatatom 1028 183 5 0 0 0 - - -;
#X obj 989 211 mtof;
#X floatatom 989 239 5 0 0 0 - - -;
#X text 876 251 pitch detector;
#X obj 19 198 bp~ 240 10;
#X obj 67 220 bp~ 360 10;
#X obj 114 242 bp~ 480 20;
#X obj 159 264 bp~ 600 20;
#X obj 208 286 bp~ 720 30;
#X obj 255 308 bp~ 840 30;
#X obj 302 330 bp~ 1000 40;
#X obj 349 352 bp~ 1150 40;
#X obj 397 373 bp~ 1300 40;
#X obj 443 392 bp~ 1450 40;
#X obj 491 370 bp~ 1600 50;
#X obj 538 348 bp~ 1800 50;
#X obj 585 326 bp~ 2000 50;
#X obj 632 304 bp~ 2200 50;
#X obj 678 282 bp~ 2400 50;
#X obj 726 260 bp~ 2700 50;
#X obj 772 238 bp~ 3000 50;
#X obj 820 216 bp~ 3300 40;
#X obj 867 194 bp~ 3700 40;
#X obj 959 126 fiddle~ 2048;
#X obj 1028 211 > 80;
#X obj 1028 352 zexy/wrap 400;
#X obj 1236 129 vsl 20 200 0.1 10 1 0 empty empty empty 0 -9 2 10 -261234
-13381 -1 9950 1;
#X obj 1269 130 vsl 20 200 0.1 10 1 0 empty empty empty 0 -9 0 10 -261234
-13381 -1 9950 1;
#X obj 1303 130 vsl 20 200 0.1 10 1 0 empty empty empty 0 -9 0 10 -261234
-13381 -1 9950 1;
#X obj 1337 130 vsl 20 200 0.1 10 1 0 empty empty empty 0 -9 0 10 -261234
-13381 -1 9950 1;
#X obj 1371 130 vsl 20 200 0.1 10 1 0 empty empty empty 0 -9 0 10 -261234
-13381 -1 9950 1;
#X obj 1405 130 vsl 20 200 0.1 10 1 0 empty empty empty 0 -9 0 10 -261234
-13381 -1 9950 1;
#X obj 1439 130 vsl 20 200 0.1 10 1 0 empty empty empty 0 -9 0 10 -261234
-13381 -1 9950 1;
#X obj 1473 130 vsl 20 200 0.1 10 1 0 empty empty empty 0 -9 0 10 -261234
-13381 -1 9950 1;
#X obj 1507 130 vsl 20 200 0.1 10 1 0 empty empty empty 0 -9 0 10 -261234
-13381 -1 9950 1;
#X obj 1541 130 vsl 20 200 0.1 10 1 0 empty empty empty 0 -9 0 10 -261234
-13381 -1 9950 1;
#X obj 1575 130 vsl 20 200 0.1 10 1 0 empty empty empty 0 -9 0 10 -261234
-13381 -1 9950 1;
#X obj 1609 130 vsl 20 200 0.1 10 1 0 empty empty empty 0 -9 0 10 -261234
-13381 -1 9950 1;
#X obj 1643 130 vsl 20 200 0.1 10 1 0 empty empty empty 0 -9 0 10 -261234
-13381 -1 9950 1;
#X obj 1677 130 vsl 20 200 0.1 10 1 0 empty empty empty 0 -9 0 10 -261234
-13381 -1 9950 1;
#X obj 1711 130 vsl 20 200 0.1 10 1 0 empty empty empty 0 -9 0 10 -261234
-13381 -1 9950 1;
#X obj 1745 130 vsl 20 200 0.1 10 1 0 empty empty empty 0 -9 0 10 -261234
-13381 -1 9950 1;
#X obj 1779 130 vsl 20 200 0.1 10 1 0 empty empty empty 0 -9 0 10 -261234
-13381 -1 9950 1;
#X obj 1813 130 vsl 20 200 0.1 10 1 0 empty empty empty 0 -9 0 10 -261234
-13381 -1 9950 1;
#X obj 1847 130 vsl 20 200 0.1 10 1 0 empty empty empty 0 -9 0 10 -261234
-13381 -1 9950 1;
#X obj 19 456 *~;
#X obj 1548 13 loadbang;
#X msg 1548 55 1;
#X floatatom 1333 337 5 0 0 0 - - -;
#X floatatom 1299 337 5 0 0 0 - - -;
#X floatatom 1265 337 5 0 0 0 - - -;
#X floatatom 1231 337 5 0 0 0 - - -;
#X floatatom 1469 337 5 0 0 0 - - -;
#X floatatom 1435 337 5 0 0 0 - - -;
#X floatatom 1401 337 5 0 0 0 - - -;
#X floatatom 1367 337 5 0 0 0 - - -;
#X floatatom 1605 337 5 0 0 0 - - -;
#X floatatom 1571 337 5 0 0 0 - - -;
#X floatatom 1537 337 5 0 0 0 - - -;
#X floatatom 1503 337 5 0 0 0 - - -;
#X floatatom 1741 337 5 0 0 0 - - -;
#X floatatom 1707 337 5 0 0 0 - - -;
#X floatatom 1673 337 5 0 0 0 - - -;
#X floatatom 1639 337 5 0 0 0 - - -;
#X floatatom 1843 337 5 0 0 0 - - -;
#X floatatom 1809 337 5 0 0 0 - - -;
#X floatatom 1775 337 5 0 0 0 - - -;
#X obj 66 456 *~;
#X obj 113 456 *~;
#X obj 160 455 *~;
#X obj 207 455 *~;
#X obj 256 455 *~;
#X obj 303 456 *~;
#X obj 350 456 *~;
#X obj 398 456 *~;
#X obj 444 455 *~;
#X obj 492 455 *~;
#X obj 539 455 *~;
#X obj 586 455 *~;
#X obj 633 455 *~;
#X obj 679 455 *~;
#X obj 727 454 *~;
#X obj 773 454 *~;
#X obj 821 454 *~;
#X obj 868 454 *~;
#X obj 404 644 +~;
#X obj 493 712 wsprobe~;
#X obj 1778 90 bng 25 250 50 0 empty empty empty 17 7 0 10 -262130
-1 -1;
#X text 1807 100 RESET;
#X obj 1266 360 vu 30 200 empty empty -1 -8 0 10 -162280 -13330 0 0
;
#X obj 1300 360 vu 30 200 empty empty -1 -8 0 10 -162280 -13330 0 0
;
#X obj 1334 360 vu 30 200 empty empty -1 -8 0 10 -162280 -1 0 0;
#X obj 1368 360 vu 30 200 empty empty -1 -8 0 10 -162280 -1 0 0;
#X obj 1402 360 vu 30 200 empty empty -1 -8 0 10 -162280 -1 0 0;
#X obj 1436 360 vu 30 200 empty empty -1 -8 0 10 -162280 -1 0 0;
#X obj 1470 360 vu 30 200 empty empty -1 -8 0 10 -162280 -1 0 0;
#X obj 1504 360 vu 30 200 empty empty -1 -8 0 10 -162280 -1 0 0;
#X obj 1538 360 vu 30 200 empty empty -1 -8 0 10 -162280 -1 0 0;
#X obj 1572 360 vu 30 200 empty empty -1 -8 0 10 -162280 -1 0 0;
#X obj 1606 360 vu 30 200 empty empty -1 -8 0 10 -162280 -1 0 0;
#X obj 1640 360 vu 30 200 empty empty -1 -8 0 10 -162280 -1 0 0;
#X obj 1674 360 vu 30 200 empty empty -1 -8 0 10 -162280 -1 0 0;
#X obj 1708 360 vu 30 200 empty empty -1 -8 0 10 -162280 -1 0 0;
#X obj 1742 360 vu 30 200 empty empty -1 -8 0 10 -162280 -1 0 0;
#X obj 1776 360 vu 30 200 empty empty -1 -8 0 10 -162280 -1 0 0;
#X obj 1810 360 vu 30 200 empty empty -1 -8 0 10 -162280 -1 0 0;
#X obj 1844 360 vu 30 200 empty empty -1 -8 0 10 -162280 -1 0 0;
#X text 1208 119 10dB;
#X text 1202 322 -10dB;
#X text 1867 119 10dB;
#X text 1866 323 -10dB;
#X text 1236 559 240;
#X text 1270 559 360;
#X text 1304 559 480;
#X text 1339 559 600;
#X text 1373 559 720;
#X text 1406 559 840;
#X text 1438 559 1000;
#X text 1472 559 1150;
#X text 1505 559 1300;
#X text 1539 559 1450;
#X text 1573 559 1600;
#X text 1607 559 1800;
#X text 1641 559 2000;
#X text 1676 559 2200;
#X text 1709 559 2400;
#X text 1743 559 2700;
#X text 1778 559 3000;
#X text 1811 559 3300;
#X text 1846 559 3700;
#X obj 442 68 inlet~;
#X obj 405 711 outlet~;
#X text 1936 559 comment;
#X text 1892 638 comment;
#X text 1140 337 power ratio ->;
#X connect 0 0 1 0;
#X connect 1 0 2 0;
#X connect 2 0 155 0;
#X connect 3 0 4 0;
#X connect 4 0 5 0;
#X connect 5 0 154 0;
#X connect 6 0 7 0;
#X connect 7 0 8 0;
#X connect 8 0 153 0;
#X connect 9 0 10 0;
#X connect 10 0 12 0;
#X connect 12 0 11 0;
#X connect 13 0 14 0;
#X connect 14 0 15 0;
#X connect 15 0 159 0;
#X connect 16 0 17 0;
#X connect 17 0 18 0;
#X connect 18 0 158 0;
#X connect 19 0 20 0;
#X connect 20 0 21 0;
#X connect 21 0 157 0;
#X connect 22 0 23 0;
#X connect 23 0 24 0;
#X connect 24 0 156 0;
#X connect 25 0 26 0;
#X connect 26 0 27 0;
#X connect 27 0 163 0;
#X connect 28 0 29 0;
#X connect 29 0 30 0;
#X connect 30 0 162 0;
#X connect 31 0 32 0;
#X connect 32 0 33 0;
#X connect 33 0 161 0;
#X connect 34 0 35 0;
#X connect 35 0 36 0;
#X connect 36 0 160 0;
#X connect 37 0 38 0;
#X connect 38 0 39 0;
#X connect 39 0 167 0;
#X connect 40 0 41 0;
#X connect 41 0 42 0;
#X connect 42 0 166 0;
#X connect 43 0 44 0;
#X connect 44 0 45 0;
#X connect 45 0 165 0;
#X connect 46 0 47 0;
#X connect 47 0 48 0;
#X connect 48 0 164 0;
#X connect 49 0 50 0;
#X connect 50 0 51 0;
#X connect 51 0 170 0;
#X connect 52 0 53 0;
#X connect 53 0 54 0;
#X connect 54 0 169 0;
#X connect 55 0 56 0;
#X connect 56 0 57 0;
#X connect 57 0 168 0;
#X connect 58 0 87 0;
#X connect 59 0 89 0;
#X connect 60 0 59 0;
#X connect 61 0 60 0;
#X connect 61 1 60 1;
#X connect 62 0 63 0;
#X connect 62 1 64 0;
#X connect 63 0 65 0;
#X connect 64 0 88 0;
#X connect 65 0 66 0;
#X connect 66 0 60 0;
#X connect 68 0 109 0;
#X connect 69 0 131 0;
#X connect 70 0 132 0;
#X connect 71 0 133 0;
#X connect 72 0 134 0;
#X connect 73 0 135 0;
#X connect 74 0 136 0;
#X connect 75 0 137 0;
#X connect 76 0 138 0;
#X connect 77 0 139 0;
#X connect 78 0 140 0;
#X connect 79 0 141 0;
#X connect 80 0 142 0;
#X connect 81 0 143 0;
#X connect 82 0 144 0;
#X connect 83 0 145 0;
#X connect 84 0 146 0;
#X connect 85 0 147 0;
#X connect 86 0 148 0;
#X connect 87 2 62 0;
#X connect 88 0 61 0;
#X connect 90 0 115 0;
#X connect 91 0 114 0;
#X connect 92 0 113 0;
#X connect 93 0 112 0;
#X connect 94 0 119 0;
#X connect 95 0 118 0;
#X connect 96 0 117 0;
#X connect 97 0 116 0;
#X connect 98 0 123 0;
#X connect 99 0 122 0;
#X connect 100 0 121 0;
#X connect 101 0 120 0;
#X connect 102 0 127 0;
#X connect 103 0 126 0;
#X connect 104 0 125 0;
#X connect 105 0 124 0;
#X connect 106 0 130 0;
#X connect 107 0 129 0;
#X connect 108 0 128 0;
#X connect 109 0 9 0;
#X connect 109 0 149 0;
#X connect 110 0 111 0;
#X connect 111 0 90 0;
#X connect 111 0 91 0;
#X connect 111 0 92 0;
#X connect 111 0 93 0;
#X connect 111 0 94 0;
#X connect 111 0 95 0;
#X connect 111 0 96 0;
#X connect 111 0 97 0;
#X connect 111 0 98 0;
#X connect 111 0 99 0;
#X connect 111 0 100 0;
#X connect 111 0 101 0;
#X connect 111 0 102 0;
#X connect 111 0 103 0;
#X connect 111 0 104 0;
#X connect 111 0 105 0;
#X connect 111 0 106 0;
#X connect 111 0 107 0;
#X connect 111 0 108 0;
#X connect 112 0 133 1;
#X connect 113 0 132 1;
#X connect 114 0 131 1;
#X connect 115 0 109 1;
#X connect 116 0 137 1;
#X connect 117 0 136 1;
#X connect 118 0 135 1;
#X connect 119 0 134 1;
#X connect 120 0 141 1;
#X connect 121 0 140 1;
#X connect 122 0 139 1;
#X connect 123 0 138 1;
#X connect 124 0 145 1;
#X connect 125 0 144 1;
#X connect 126 0 143 1;
#X connect 127 0 142 1;
#X connect 128 0 148 1;
#X connect 129 0 147 1;
#X connect 130 0 146 1;
#X connect 131 0 6 0;
#X connect 131 0 149 0;
#X connect 132 0 3 0;
#X connect 132 0 149 0;
#X connect 133 0 0 0;
#X connect 133 0 149 0;
#X connect 134 0 22 0;
#X connect 134 0 149 0;
#X connect 135 0 19 0;
#X connect 135 0 149 0;
#X connect 136 0 16 0;
#X connect 136 0 149 0;
#X connect 137 0 13 0;
#X connect 137 0 149 0;
#X connect 138 0 34 0;
#X connect 138 0 149 0;
#X connect 139 0 31 0;
#X connect 139 0 149 1;
#X connect 140 0 28 0;
#X connect 140 0 149 1;
#X connect 141 0 25 0;
#X connect 141 0 149 1;
#X connect 142 0 46 0;
#X connect 142 0 149 1;
#X connect 143 0 43 0;
#X connect 143 0 149 1;
#X connect 144 0 40 0;
#X connect 144 0 149 1;
#X connect 145 0 37 0;
#X connect 145 0 149 1;
#X connect 146 0 55 0;
#X connect 146 0 149 1;
#X connect 147 0 52 0;
#X connect 147 0 149 1;
#X connect 148 0 49 0;
#X connect 148 0 149 1;
#X connect 149 0 150 0;
#X connect 149 0 195 0;
#X connect 151 0 111 0;
#X connect 194 0 68 0;
#X connect 194 0 69 0;
#X connect 194 0 70 0;
#X connect 194 0 71 0;
#X connect 194 0 72 0;
#X connect 194 0 73 0;
#X connect 194 0 74 0;
#X connect 194 0 75 0;
#X connect 194 0 76 0;
#X connect 194 0 77 0;
#X connect 194 0 78 0;
#X connect 194 0 79 0;
#X connect 194 0 80 0;
#X connect 194 0 81 0;
#X connect 194 0 82 0;
#X connect 194 0 83 0;
#X connect 194 0 84 0;
#X connect 194 0 85 0;
#X connect 194 0 86 0;
#X coords 0 -1 1 1 700 500 1 1200 80;
