#N canvas 283 37 1314 735 10;
#X obj 345 32 inlet~;
#X text 332 18 audio input;
#X obj 362 105 sig~;
#X obj 362 133 phasor~;
#X obj 347 191 hilbert~;
#X obj 362 162 cos~;
#X obj 407 162 +~ -0.25;
#X obj 407 190 cos~;
#X obj 347 225 *~;
#X obj 392 223 *~;
#X obj 347 261 -~;
#X obj 392 261 *~ 10;
#X obj 347 292 *~;
#X obj 801 443 hsl 140 20 0.1 10 1 0 empty empty OFC_Scale 47 10 0
10 -261234 -13381 -86277 11808 1;
#X text 795 463 0;
#X floatatom 952 449 5 0 0 0 - - -;
#X obj 348 450 +~;
#X obj 363 396 sig~;
#X obj 801 492 hsl 140 20 0 1000 0 0 empty empty Delay 55 10 0 10 -261234
-86277 -86277 0 1;
#X floatatom 952 498 5 0 0 0 - - -;
#X text 795 511 0;
#X text 929 511 1000;
#X obj 519 508 sig~;
#X obj 504 533 *~;
#X floatatom 952 548 5 0 0 0 - - -;
#X obj 800 542 hsl 140 20 0 1 0 0 empty empty Feedback 47 10 0 10 -261234
-13381 -86277 0 1;
#X text 794 560 0;
#X text 937 562 1;
#X obj 347 655 outlet~;
#X obj 905 34 loadbang;
#X obj 407 553 output~;
#X text 935 461 10;
#X obj 772 448 bng 15 250 50 0 empty empty empty 17 7 0 10 -261682
-1 -1;
#X obj 772 497 bng 15 250 50 0 empty empty empty 17 7 0 10 -261682
-1 -1;
#X obj 772 547 bng 15 250 50 0 empty empty empty 17 7 0 10 -261682
-1 -1;
#X obj 818 245 vradio 20 1 0 2 empty empty empty 0 -8 0 10 -249011
-1 -13381 0;
#X obj 802 346 hsl 140 20 0.1 10000 1 0 empty empty Speed 55 10 0 10
-261234 -13381 -86277 4723 1;
#X obj 800 396 hsl 140 20 0.1 1 1 0 empty empty Depth 58 10 0 10 -261234
-13381 -86277 9716 1;
#X floatatom 951 352 5 0 0 1 - - -;
#X floatatom 951 401 5 0 0 0 - - -;
#X obj 906 253 bng 25 250 50 0 empty empty empty 17 7 0 10 -244847
-1 -1;
#X floatatom 600 83 5 0 0 0 - - -;
#X obj 585 168 *~ 10000;
#X obj 496 220 *~;
#X obj 585 192 clip~ -1 1;
#X obj 496 82 osc~ 1000;
#X msg 714 345 5;
#X msg 714 391 0.5;
#X obj 511 114 == 0;
#X obj 600 113 == 1;
#X obj 496 145 *~;
#X obj 585 144 *~;
#X text 926 366 10000;
#X text 937 415 1;
#X obj 773 351 bng 15 250 50 0 empty empty empty 17 7 0 10 -261682
-1 -1;
#X obj 773 401 bng 15 250 50 0 empty empty empty 17 7 0 10 -261682
-1 -1;
#X text 838 249 <-sine;
#X text 838 265 <-square;
#X msg 713 435 5;
#X msg 712 484 0;
#X msg 712 533 0;
#X text 761 278 RESET;
#X msg 1031 280 \; cn_main color 10 \;;
#X text 930 264 RESET ALL;
#X text 790 415 0.1;
#X text 790 365 0.1;
#X obj 581 8 inlet;
#X obj 907 216 tgl 25 0 empty empty empty 17 7 0 10 -204786 -1 -1 1
1;
#X obj 347 626 *~;
#X text 933 228 Active;
#X text 760 213 Audio Adjustment:;
#X text 866 214 ----->;
#X floatatom 953 306 5 0 0 0 - - -;
#X obj 801 300 hsl 140 20 -1000 1000 0 0 empty empty Frequency_Shift
30 10 0 10 -261234 -13381 -86277 6950 1;
#X obj 773 305 bng 15 250 50 0 empty empty empty 17 7 0 10 -261682
-1 -1;
#X msg 713 302 0;
#X text 781 318 -1000;
#X text 929 320 1000;
#X obj 581 32 t f f f f f f;
#X obj 458 33 inlet;
#X text 444 18 frequency shift;
#X msg 916 173 1;
#X obj 721 32 inlet;
#X text 720 15 active;
#X obj 393 345 delwrite~ \$10-delayline 1000;
#X obj 363 423 vd~ \$10-delayline;
#X obj 504 571 s~ \$10-feedback;
#X obj 393 314 r~ \$10-feedback;
#X connect 0 0 4 0;
#X connect 2 0 3 0;
#X connect 3 0 5 0;
#X connect 3 0 6 0;
#X connect 4 0 8 0;
#X connect 4 1 9 0;
#X connect 5 0 8 1;
#X connect 6 0 7 0;
#X connect 7 0 9 1;
#X connect 8 0 10 0;
#X connect 9 0 10 1;
#X connect 10 0 12 0;
#X connect 11 0 12 1;
#X connect 12 0 16 0;
#X connect 12 0 84 0;
#X connect 13 0 15 0;
#X connect 15 0 11 1;
#X connect 16 0 23 0;
#X connect 16 0 30 0;
#X connect 16 0 30 1;
#X connect 16 0 68 0;
#X connect 17 0 85 0;
#X connect 18 0 19 0;
#X connect 19 0 17 0;
#X connect 22 0 23 1;
#X connect 23 0 86 0;
#X connect 24 0 22 0;
#X connect 25 0 24 0;
#X connect 29 0 40 0;
#X connect 29 0 81 0;
#X connect 32 0 58 0;
#X connect 33 0 59 0;
#X connect 34 0 60 0;
#X connect 35 0 41 0;
#X connect 36 0 38 0;
#X connect 37 0 39 0;
#X connect 38 0 45 0;
#X connect 39 0 43 1;
#X connect 40 0 35 0;
#X connect 40 0 46 0;
#X connect 40 0 47 0;
#X connect 40 0 58 0;
#X connect 40 0 59 0;
#X connect 40 0 60 0;
#X connect 40 0 75 0;
#X connect 41 0 48 0;
#X connect 41 0 49 0;
#X connect 42 0 44 0;
#X connect 43 0 11 0;
#X connect 44 0 43 0;
#X connect 45 0 50 0;
#X connect 45 0 51 0;
#X connect 46 0 36 0;
#X connect 47 0 37 0;
#X connect 48 0 50 1;
#X connect 49 0 51 1;
#X connect 50 0 43 0;
#X connect 51 0 42 0;
#X connect 54 0 46 0;
#X connect 55 0 47 0;
#X connect 58 0 13 0;
#X connect 59 0 18 0;
#X connect 60 0 25 0;
#X connect 66 0 78 0;
#X connect 67 0 68 1;
#X connect 68 0 28 0;
#X connect 72 0 2 0;
#X connect 73 0 72 0;
#X connect 74 0 75 0;
#X connect 75 0 73 0;
#X connect 78 0 36 0;
#X connect 78 1 37 0;
#X connect 78 2 13 0;
#X connect 78 3 18 0;
#X connect 78 4 25 0;
#X connect 78 5 73 0;
#X connect 79 0 73 0;
#X connect 81 0 67 0;
#X connect 82 0 67 0;
#X connect 85 0 16 1;
#X connect 87 0 84 0;
#X coords 0 -1 1 1 250 375 2 750 200;
