#N canvas 579 159 1776 747 10;
#X obj 1438 59 loadbang;
#X obj 1081 588 wsprobe~;
#X obj 525 378 +~;
#X obj 1202 349 hsl 128 15 0 1000 0 0 empty empty delay 2 -8 0 10 -262144
-1 -1 0 1;
#X floatatom 1357 348 5 0 0 0 - - -;
#X obj 540 297 sig~;
#X text 1195 364 0;
#X text 1318 364 1000;
#X obj 921 374 Mixer~;
#X obj 936 514 sig~;
#X obj 921 551 *~;
#X floatatom 1359 396 5 0 0 0 - - -;
#X obj 1202 397 hsl 128 15 0 1 0 0 empty empty feedback -2 -8 0 10
-262144 -1 -1 0 1;
#X obj 297 206 r~ feedback;
#X obj 921 589 s~ feedback;
#X text 1195 411 0;
#X text 1327 412 1;
#X obj 746 537 *~ 10;
#X obj 1200 257 hsl 128 15 0 10 0 0 empty empty empty -2 -8 0 10 -262144
-1 -1 6350 1;
#X text 1192 269 0;
#X text 1321 271 1;
#X floatatom 1356 257 5 0 0 0 - - -;
#X obj 921 245 LFO~;
#X obj 525 429 +~;
#X msg 1263 166 0;
#X obj 1201 304 hsl 128 15 -1000 1000 0 0 empty empty Frequency_Shift
5 -8 0 10 -262144 -1 -1 6350 1;
#X text 1178 317 -1000;
#X floatatom 1356 303 5 0 0 0 - - -;
#X obj 678 298 sig~;
#X obj 678 330 phasor~;
#X obj 660 472 hilbert~;
#X obj 677 377 cos~;
#X obj 721 379 +~ -0.25;
#X obj 721 414 cos~;
#X obj 660 506 *~;
#X obj 705 504 *~;
#X obj 660 542 -~;
#X obj 660 579 *~;
#X obj 667 62 inlet~;
#X text 654 48 audio input;
#X obj 1439 246 s bang;
#X obj 1197 131 r bang;
#X msg 1197 169 5;
#X obj 1356 60 inlet;
#X text 1353 40 reset;
#X obj 1355 213 bng 25 250 50 0 empty empty empty 17 7 0 10 -262144
-1 -1;
#X obj 848 665 outlet~;
#X text 1240 243 volumn;
#X text 1317 318 1000;
#X text 1383 212 RESET ALL;
#X obj 297 277 delwrite~ \$2-delayline 1000;
#X obj 540 330 vd~ \$2-delayline;
#X connect 0 0 40 0;
#X connect 2 0 23 0;
#X connect 3 0 4 0;
#X connect 4 0 5 0;
#X connect 5 0 51 0;
#X connect 8 0 1 0;
#X connect 8 0 10 0;
#X connect 8 0 46 0;
#X connect 9 0 10 1;
#X connect 10 0 14 0;
#X connect 11 0 9 0;
#X connect 12 0 11 0;
#X connect 13 0 50 0;
#X connect 17 0 37 1;
#X connect 18 0 21 0;
#X connect 21 0 17 1;
#X connect 22 0 17 0;
#X connect 23 0 8 1;
#X connect 24 0 25 0;
#X connect 24 0 3 0;
#X connect 24 0 12 0;
#X connect 25 0 27 0;
#X connect 27 0 28 0;
#X connect 28 0 29 0;
#X connect 29 0 31 0;
#X connect 29 0 32 0;
#X connect 30 0 34 0;
#X connect 30 1 35 0;
#X connect 31 0 34 1;
#X connect 32 0 33 0;
#X connect 33 0 35 1;
#X connect 34 0 36 0;
#X connect 35 0 36 1;
#X connect 36 0 37 0;
#X connect 37 0 23 1;
#X connect 38 0 8 0;
#X connect 38 0 2 0;
#X connect 38 0 30 0;
#X connect 38 0 50 0;
#X connect 41 0 42 0;
#X connect 41 0 24 0;
#X connect 41 0 22 2;
#X connect 42 0 18 0;
#X connect 43 0 45 0;
#X connect 45 0 40 0;
#X connect 51 0 2 1;
#X coords 0 -1 1 1 530 250 1 900 200;
