#N canvas 1040 300 1110 844 10;
#X obj 302 42 loadbang;
#X msg 192 135 start;
#X msg 302 123 open speech.wav;
#X obj 302 163 readsf~;
#X obj 81 694 output~;
#X obj 302 76 bng 15 250 50 0 empty empty empty 17 7 0 10 -262144 -1
-1;
#X obj 168 694 wsprobe~;
#X obj 192 107 delay 50;
#X obj 302 431 +~;
#X obj 317 200 delwrite~ delayline 1000;
#X obj 321 273 hsl 128 15 0 1000 0 0 empty empty delay 2 -8 0 10 -262144
-1 -1 0 1;
#X floatatom 318 312 5 0 0 0 - - -;
#X obj 318 337 sig~;
#X obj 318 391 vd~ delayline;
#X text 322 287 0;
#X text 438 287 1000;
#X obj 84 540 Mixer~;
#X obj 578 602 sig~;
#X obj 563 639 *~;
#X floatatom 578 569 5 0 0 0 - - -;
#X obj 581 533 hsl 128 15 0 1 0 0 empty empty feedback -2 -8 0 10 -262144
-1 -1 0 1;
#X obj 378 163 r~ feedback;
#X obj 563 677 s~ feedback;
#X text 567 531 0;
#X text 712 531 1;
#X obj 318 366 *~;
#X obj 506 303 *~ 10;
#X obj 536 240 hsl 128 15 0 1 0 0 empty empty empty -2 -8 0 10 -262144
-1 -1 12700 1;
#X text 569 224 scale rate;
#X text 522 238 0;
#X text 668 238 1;
#X floatatom 533 272 5 0 0 0 - - -;
#X obj 505 81 LFO~;
#X connect 0 0 5 0;
#X connect 1 0 3 0;
#X connect 2 0 3 0;
#X connect 3 0 8 0;
#X connect 3 0 9 0;
#X connect 3 0 16 0;
#X connect 3 1 5 0;
#X connect 5 0 2 0;
#X connect 5 0 7 0;
#X connect 7 0 1 0;
#X connect 8 0 16 1;
#X connect 10 0 11 0;
#X connect 11 0 12 0;
#X connect 12 0 25 0;
#X connect 13 0 8 1;
#X connect 16 0 4 0;
#X connect 16 0 4 1;
#X connect 16 0 6 0;
#X connect 16 0 18 0;
#X connect 17 0 18 1;
#X connect 18 0 22 0;
#X connect 19 0 17 0;
#X connect 20 0 19 0;
#X connect 21 0 9 0;
#X connect 25 0 13 0;
#X connect 26 0 25 1;
#X connect 27 0 31 0;
#X connect 31 0 26 1;
#X connect 32 0 26 0;
