#N canvas 156 284 998 771 10;
#X obj 131 138 vradio 20 1 0 3 empty empty empty 0 -8 0 10 -262144
-1 -1 2;
#X text 157 144 <-Lord of the Rings - Gollum;
#X text 156 164 <-Star Wars - C3PO;
#X text 156 184 <-Dr. Who - Daleks;
#X text 111 107 Example Sound:;
#X obj 71 372 Vibrato~;
#X msg 101 331 50;
#X msg 116 310 350;
#X obj 207 375 Feedback~;
#X msg 224 354 10;
#X msg 241 333 0.9;
#X msg 258 312 0.9;
#X obj 72 435 *~;
#X obj 208 436 *~;
#X obj 72 512 outlet~;
#X obj 334 371 Ring~;
#X msg 361 329 0.9;
#X msg 347 350 30;
#X obj 334 432 *~;
#X obj 131 238 select 0 1 2;
#X obj 261 109 tgl 25 0 empty empty empty 17 7 0 10 -204786 -1 -1 1
1;
#X msg 86 412 1;
#X msg 119 412 0;
#X msg 222 414 1;
#X msg 255 414 0;
#X msg 348 411 1;
#X msg 381 411 0;
#X obj 72 476 *~;
#X obj 70 238 inlet~;
#X msg 86 352 950;
#X text 289 120 Active;
#X text 202 109 -------->;
#X obj 427 -75 loadbang;
#X obj 427 -41 bng 15 250 50 0 empty empty empty 17 7 0 10 -262144
-1 -1;
#X msg 427 32 open speech.wav;
#X obj 312 -2 delay 500;
#X msg 312 32 start;
#X obj 427 78 readsf~;
#X obj 479 142 output~;
#X obj 189 556 output~;
#X obj 131 18 loadbang;
#X msg 131 57 0;
#X obj 291 516 output~;
#X obj 437 467 output~;
#X connect 0 0 19 0;
#X connect 5 0 12 0;
#X connect 6 0 5 2;
#X connect 7 0 5 3;
#X connect 8 0 13 0;
#X connect 9 0 8 1;
#X connect 10 0 8 2;
#X connect 11 0 8 3;
#X connect 12 0 27 0;
#X connect 12 0 39 0;
#X connect 12 0 39 1;
#X connect 13 0 27 0;
#X connect 13 0 42 0;
#X connect 13 0 42 1;
#X connect 15 0 18 0;
#X connect 16 0 15 2;
#X connect 17 0 15 1;
#X connect 18 0 27 0;
#X connect 18 0 43 0;
#X connect 18 0 43 1;
#X connect 19 0 21 0;
#X connect 19 0 24 0;
#X connect 19 0 26 0;
#X connect 19 1 22 0;
#X connect 19 1 23 0;
#X connect 19 1 26 0;
#X connect 19 2 22 0;
#X connect 19 2 24 0;
#X connect 19 2 25 0;
#X connect 20 0 27 1;
#X connect 21 0 12 1;
#X connect 22 0 12 1;
#X connect 23 0 13 1;
#X connect 24 0 13 1;
#X connect 25 0 18 1;
#X connect 26 0 18 1;
#X connect 27 0 14 0;
#X connect 28 0 5 0;
#X connect 28 0 8 0;
#X connect 28 0 15 0;
#X connect 29 0 5 1;
#X connect 32 0 33 0;
#X connect 33 0 34 0;
#X connect 33 0 35 0;
#X connect 34 0 37 0;
#X connect 35 0 36 0;
#X connect 36 0 37 0;
#X connect 37 0 38 0;
#X connect 37 0 38 1;
#X connect 37 0 5 0;
#X connect 37 0 8 0;
#X connect 37 0 15 0;
#X connect 37 1 33 0;
#X connect 40 0 41 0;
#X connect 41 0 0 0;
#X connect 41 0 20 0;
#X coords 0 -1 1 1 250 110 2 100 100;
