#N canvas 872 184 1110 844 10;
#X obj 273 156 hsl 128 15 0 1000 0 0 empty empty delay 2 -8 0 10 -262144
-1 -1 127 1;
#X floatatom 270 191 5 0 0 0 - - -;
#X obj 270 221 sig~;
#X text 274 170 0;
#X text 390 170 1000;
#X obj 385 560 sig~;
#X obj 370 597 *~;
#X floatatom 385 533 5 0 0 0 - - -;
#X obj 388 508 hsl 128 15 0 1 0 0 empty empty feedback -2 -8 0 10 -262144
-1 -1 11430 1;
#X text 374 506 0;
#X text 517 505 1;
#X obj 237 22 inlet~;
#X obj 309 22 inlet;
#X text 308 7 delay;
#X obj 385 24 inlet;
#X text 383 9 feedback;
#X obj 459 24 inlet;
#X text 455 9 mix rate;
#X obj 237 600 outlet~;
#X text 241 7 audio;
#X obj 270 105 delwrite~ $s3-delayline 1000;
#X obj 270 256 vd~ $s3-delayline;
#X obj 370 635 s~ $s1-feedback;
#X obj 269 71 r~ $s1-feedback;
#X obj 236 283 Mix~;
#X floatatom 307 597 5 0 0 0 - - -;
#X connect 0 0 1 0;
#X connect 1 0 2 0;
#X connect 2 0 21 0;
#X connect 5 0 6 1;
#X connect 6 0 22 0;
#X connect 7 0 5 0;
#X connect 8 0 7 0;
#X connect 11 0 20 0;
#X connect 11 0 24 0;
#X connect 12 0 0 0;
#X connect 14 0 8 0;
#X connect 16 0 24 2;
#X connect 21 0 24 1;
#X connect 23 0 20 0;
#X connect 24 0 18 0;
#X connect 24 0 6 0;
#X connect 24 1 25 0;
