#N canvas 15 404 890 692 10;
#X obj 119 556 output~;
#X obj 216 561 wsprobe~;
#X obj 291 411 +~;
#X obj 330 222 delwrite~ delayline 1000;
#X obj 334 260 hsl 128 15 0 1000 0 0 empty empty delay 2 -8 0 10 -262144
-1 -1 0 1;
#X floatatom 331 287 5 0 0 0 - - -;
#X obj 331 319 sig~;
#X obj 330 380 vd~ delayline;
#X text 320 259 0;
#X text 465 258 1000;
#X obj 330 350 *~;
#X floatatom 291 520 5 0 0 0 - - -;
#X obj 508 332 *~ 10;
#X obj 538 269 hsl 128 15 0 1 0 0 empty empty empty -2 -8 0 10 -262144
-1 -1 0 1;
#X text 571 253 scale rate;
#X text 524 267 0;
#X text 670 267 1;
#X floatatom 535 301 5 0 0 0 - - -;
#X obj 291 72 inlet~;
#X obj 507 76 inlet;
#X obj 603 75 inlet;
#X text 507 56 speed;
#X text 604 56 depth;
#X obj 700 74 inlet;
#X text 699 57 reset;
#X text 290 53 audio;
#X obj 359 73 inlet;
#X text 360 55 delay;
#X obj 793 72 inlet;
#X text 793 55 LFO scale rate;
#X obj 507 110 LFO~;
#X obj 118 444 Mixer~;
#X connect 2 0 31 1;
#X connect 4 0 5 0;
#X connect 5 0 6 0;
#X connect 6 0 10 0;
#X connect 7 0 2 1;
#X connect 10 0 7 0;
#X connect 12 0 10 1;
#X connect 13 0 17 0;
#X connect 17 0 12 1;
#X connect 18 0 2 0;
#X connect 18 0 3 0;
#X connect 18 0 31 0;
#X connect 19 0 30 0;
#X connect 20 0 30 1;
#X connect 23 0 30 2;
#X connect 26 0 4 0;
#X connect 28 0 13 0;
#X connect 30 0 12 0;
#X connect 31 0 0 0;
#X connect 31 0 0 1;
#X connect 31 0 1 0;
#X connect 31 1 11 0;
