#N canvas 291 422 823 644 10;
#X msg 246 81 0;
#X obj 326 142 hsl 128 15 -1000 1000 0 0 empty empty Frequency_Shift
20 -8 0 10 -262144 -1 -1 0 1;
#X text 306 154 -1000;
#X text 442 154 1000;
#X floatatom 486 142 5 0 0 0 - - -;
#X obj 323 207 sig~;
#X obj 323 239 phasor~;
#X obj 180 322 hilbert~;
#X obj 323 275 cos~;
#X obj 390 277 +~ -0.25;
#X obj 390 312 cos~;
#X obj 180 379 *~;
#X obj 282 375 *~;
#X obj 180 409 -~;
#X obj 181 52 inlet~;
#X obj 323 52 inlet;
#X text 182 33 audio;
#X msg 246 52 loadbang;
#X obj 486 120 bng 15 250 50 0 empty empty empty 17 7 0 10 -262144
-1 -1;
#X text 502 119 RESET;
#X obj 180 443 outlet~;
#X obj 486 52 inlet;
#X text 524 51 Reset;
#X text 361 51 Shift Value -massage of number;
#X connect 0 0 1 0;
#X connect 1 0 4 0;
#X connect 4 0 5 0;
#X connect 5 0 6 0;
#X connect 6 0 8 0;
#X connect 6 0 9 0;
#X connect 7 0 11 0;
#X connect 7 1 12 0;
#X connect 8 0 11 1;
#X connect 9 0 10 0;
#X connect 10 0 12 1;
#X connect 11 0 13 0;
#X connect 12 0 13 1;
#X connect 13 0 20 0;
#X connect 14 0 7 0;
#X connect 15 0 1 0;
#X connect 17 0 0 0;
#X connect 18 0 0 0;
#X connect 21 0 18 0;
#X coords 0 -1 1 1 240 60 1 300 110;
