#N canvas 813 342 598 394 10;
#X obj 62 12 vradio 15 1 0 2 empty empty empty 0 -8 0 10 -262144 -1
-1 0;
#X obj 36 68 hsl 128 15 0 50000 0 0 empty empty empty -2 -8 0 10 -262144
-1 -1 1200 1;
#X obj 35 96 hsl 128 15 0 1 0 0 empty empty empty -2 -8 0 10 -262144
-1 -1 1300 1;
#X floatatom 180 68 5 0 0 0 - - -;
#X floatatom 181 95 5 0 0 0 - - -;
#X obj 192 14 bng 15 250 50 0 empty empty empty 17 7 0 10 -262144 -1
-1;
#X floatatom 325 37 5 0 0 0 - - -;
#X obj 196 280 print;
#X obj 362 154 *~ 10000;
#X obj 267 185 *~;
#X obj 363 188 clip~ -1 1;
#X obj 318 87 == 0;
#X obj 268 114 spigot~;
#X obj 361 82 == 1;
#X obj 362 116 spigot~;
#X obj 362 224 *~;
#X obj 268 254 +~;
#X obj 267 295 outlet~;
#X obj 410 295 outlet;
#X text 181 28 RESET;
#X text 79 9 sine;
#X text 78 65 SPEED;
#X text 79 95 DEPTH;
#X text 80 26 square;
#X msg 236 5 0;
#X obj 267 67 osc~ 1000;
#X obj 139 221 wsprobe~;
#X connect 0 0 6 0;
#X connect 1 0 3 0;
#X connect 2 0 4 0;
#X connect 3 0 25 0;
#X connect 4 0 9 1;
#X connect 4 0 18 0;
#X connect 5 0 0 0;
#X connect 5 0 24 0;
#X connect 6 0 11 0;
#X connect 6 0 13 0;
#X connect 8 0 10 0;
#X connect 9 0 16 0;
#X connect 10 0 15 0;
#X connect 11 0 12 1;
#X connect 12 0 9 0;
#X connect 12 1 9 0;
#X connect 13 0 14 1;
#X connect 14 0 8 0;
#X connect 14 1 8 0;
#X connect 15 0 16 0;
#X connect 16 0 17 0;
#X connect 24 0 1 0;
#X connect 24 0 2 0;
#X connect 25 0 12 0;
#X connect 25 0 14 0;
#X coords 0 -1 1 1 200 120 2 20 0;
