#N canvas 1356 653 598 394 10;
#X obj 93 13 vradio 15 1 0 2 empty empty empty 0 -8 0 10 -262144 -1
-1 0;
#X obj 35 67 hsl 128 15 0 50 0 0 empty empty empty -2 -8 0 10 -262144
-1 -1 0 1;
#X obj 35 96 hsl 128 15 0 1 0 0 empty empty empty -2 -8 0 10 -262144
-1 -1 0 1;
#X floatatom 193 67 5 0 0 0 - - -;
#X floatatom 193 95 5 0 0 0 - - -;
#X obj 192 14 bng 15 250 50 0 empty empty empty 17 7 0 10 -262144 -1
-1;
#X obj 267 67 osc~;
#X floatatom 325 37 5 0 0 0 - - -;
#X obj 196 280 print;
#X obj 362 154 *~ 10000;
#X obj 267 185 *~;
#X obj 363 188 clip~ -1 1;
#X obj 315 82 == 0;
#X obj 268 114 spigot~;
#X obj 361 82 == 1;
#X obj 362 116 spigot~;
#X obj 362 224 *~;
#X obj 268 254 +~;
#X obj 267 295 outlet~;
#X obj 193 143 outlet;
#X text 213 11 RESET;
#X connect 0 0 7 0;
#X connect 1 0 3 0;
#X connect 2 0 4 0;
#X connect 3 0 6 0;
#X connect 4 0 10 1;
#X connect 4 0 19 0;
#X connect 5 0 1 0;
#X connect 6 0 13 0;
#X connect 6 0 15 0;
#X connect 7 0 12 0;
#X connect 7 0 14 0;
#X connect 9 0 11 0;
#X connect 10 0 17 0;
#X connect 11 0 16 0;
#X connect 12 0 13 1;
#X connect 13 0 10 0;
#X connect 14 0 15 1;
#X connect 15 0 9 0;
#X connect 16 0 17 0;
#X connect 17 0 18 0;
