#N canvas 962 491 440 491 10;
#X obj 172 83 vradio 15 1 0 2 empty empty empty 0 -8 0 10 -262144 -1
-1 0;
#X obj 107 127 hsl 128 15 0 10000 0 0 empty empty empty -2 -8 0 10
-262144 -1 -1 0 1;
#X obj 106 163 hsl 128 15 0 1 0 0 empty empty empty -2 -8 0 10 -262144
-1 -1 0 1;
#X floatatom 262 129 5 0 0 0 - - -;
#X floatatom 263 164 5 0 0 0 - - -;
#X obj 262 99 bng 15 250 50 0 empty empty empty 17 7 0 10 -262144 -1
-1;
#X floatatom 170 201 5 0 0 0 - - -;
#X obj 183 312 *~ 10000;
#X obj 93 394 *~;
#X obj 182 348 clip~ -1 1;
#X obj 263 442 outlet;
#X text 265 84 RESET;
#X text 190 81 sine;
#X text 153 126 SPEED;
#X text 150 162 DEPTH;
#X text 191 98 square;
#X obj 94 233 osc~ 1000;
#X obj 84 25 inlet;
#X obj 144 24 inlet;
#X text 84 5 speed;
#X text 145 5 depth;
#X msg 329 96 5;
#X msg 329 131 0.5;
#X obj 170 232 == 0;
#X obj 225 232 == 1;
#X obj 93 276 *~;
#X obj 94 439 outlet~;
#X obj 183 276 *~;
#X obj 207 25 inlet;
#X text 206 8 reset;
#X text 101 138 0;
#X text 219 138 10000;
#X text 101 174 0;
#X text 231 175 1;
#X obj 262 24 loadbang;
#X obj 333 24 inlet;
#X text 324 9 sine/square;
#X connect 0 0 6 0;
#X connect 1 0 3 0;
#X connect 2 0 4 0;
#X connect 3 0 16 0;
#X connect 4 0 8 1;
#X connect 4 0 10 0;
#X connect 5 0 0 0;
#X connect 5 0 21 0;
#X connect 5 0 22 0;
#X connect 6 0 23 0;
#X connect 6 0 24 0;
#X connect 7 0 9 0;
#X connect 8 0 26 0;
#X connect 9 0 8 0;
#X connect 16 0 25 0;
#X connect 16 0 27 0;
#X connect 17 0 3 0;
#X connect 18 0 4 0;
#X connect 21 0 3 0;
#X connect 22 0 4 0;
#X connect 23 0 25 1;
#X connect 24 0 27 1;
#X connect 25 0 8 0;
#X connect 27 0 7 0;
#X connect 28 0 5 0;
#X connect 34 0 5 0;
#X connect 35 0 0 0;
#X coords 0 -1 1 1 240 110 1 80 80;
