#N canvas 800 644 844 610 10;
#X obj 188 110 hsl 128 15 0 1 0 0 empty empty Mixer 50 -8 0 10 -262144
-1 -1 0 1;
#X floatatom 345 109 5 0 0 0 - - -;
#X floatatom 127 256 5 0 0 0 - - -;
#X msg 185 46 0;
#X obj 170 293 *~;
#X obj 112 292 *~;
#X obj 111 350 +~;
#X text 181 124 0;
#X text 312 124 1;
#X obj 127 218 -;
#X msg 127 174 1;
#X obj 127 144 bng 15 250 50 0 empty empty empty 17 7 0 10 -262144
-1 -1;
#X obj 111 20 inlet~;
#X obj 171 20 inlet~;
#X obj 111 384 outlet~;
#X obj 345 383 outlet;
#X obj 344 89 bng 15 250 50 0 empty empty empty 17 7 0 10 -262144 -1
-1;
#X text 360 86 RESET;
#X msg 217 19 loadbang;
#X obj 344 21 inlet;
#X obj 284 19 inlet;
#X text 101 4 input~ A;
#X text 167 3 input~B;
#X text 281 2 rate of A;
#X text 379 20 reset;
#X connect 0 0 1 0;
#X connect 0 0 11 0;
#X connect 1 0 4 1;
#X connect 1 0 9 1;
#X connect 1 0 15 0;
#X connect 2 0 5 1;
#X connect 3 0 0 0;
#X connect 4 0 6 1;
#X connect 5 0 6 0;
#X connect 6 0 14 0;
#X connect 9 0 2 0;
#X connect 10 0 9 0;
#X connect 11 0 10 0;
#X connect 12 0 5 0;
#X connect 13 0 4 0;
#X connect 16 0 3 0;
#X connect 18 0 3 0;
#X connect 19 0 16 0;
#X connect 20 0 1 0;
#X coords 0 -1 1 1 240 60 1 160 80;
