#N canvas 480 203 823 644 10;
#X obj 187 240 LFO~;
#X obj 172 405 *~;
#X obj 170 181 inlet~;
#X obj 229 181 inlet;
#X obj 303 182 inlet;
#X text 226 165 speed;
#X text 300 166 depth;
#X obj 172 442 outlet~;
#X connect 0 0 1 1;
#X connect 1 0 7 0;
#X connect 2 0 1 0;
#X connect 3 0 0 0;
#X connect 4 0 0 1;
