#N canvas 341 61 1697 1014 10;
#X obj 45 339 SoundEffectBasis~;
#X obj 250 867 outlet~;
#X obj 871 104 tgl 25 0 empty empty empty 17 7 0 10 -204786 -1 -1 1
1;
#X obj 741 133 vradio 20 1 0 2 empty empty empty 0 -8 0 10 -262144
-1 -1 0;
#X text 767 138 <-UnderWater;
#X text 767 158 <-Chorus;
#X floatatom 740 182 5 0 0 0 - - -;
#X floatatom 772 182 5 0 0 0 - - -;
#X floatatom 805 182 5 0 0 0 - - -;
#X floatatom 837 182 5 0 0 0 - - -;
#X floatatom 870 182 5 0 0 0 - - -;
#X floatatom 902 182 5 0 0 0 - - -;
#X text 960 165 <- There is a chorus with max 6 channel.;
#X text 959 182 <- The frequency shift for 6 channel;
#X obj 250 822 *~;
#X text 723 105 Sound Effects: -------->;
#X text 899 116 Active;
#X text 407 346 chorus2;
#X obj 741 30 loadbang;
#X msg 741 58 0;
#X obj 264 7 loadbang;
#X obj 264 41 bng 15 250 50 0 empty empty empty 17 7 0 10 -262144 -1
-1;
#X msg 264 114 open speech.wav;
#X obj 149 80 delay 500;
#X msg 149 114 start;
#X obj 264 160 readsf~;
#X obj 334 857 output~;
#X obj 327 220 output~;
#X obj 56 817 output~;
#X connect 0 0 14 0;
#X connect 0 0 28 0;
#X connect 0 0 28 1;
#X connect 2 0 14 1;
#X connect 3 0 0 1;
#X connect 6 0 0 2;
#X connect 7 0 0 3;
#X connect 8 0 0 4;
#X connect 9 0 0 5;
#X connect 10 0 0 6;
#X connect 11 0 0 7;
#X connect 14 0 1 0;
#X connect 14 0 26 0;
#X connect 14 0 26 1;
#X connect 18 0 19 0;
#X connect 19 0 3 0;
#X connect 19 0 2 0;
#X connect 20 0 21 0;
#X connect 21 0 22 0;
#X connect 21 0 23 0;
#X connect 22 0 25 0;
#X connect 23 0 24 0;
#X connect 24 0 25 0;
#X connect 25 0 0 0;
#X connect 25 0 27 0;
#X connect 25 0 27 1;
#X connect 25 1 21 0;
#X coords 0 -1 1 1 250 110 2 710 95;
