#N canvas 260 94 1583 1268 10;
#X obj 756 939 +~;
#X obj 626 937 FlangerEffect~;
#X msg 642 915 5;
#X msg 657 892 1;
#X msg 672 870 10;
#X msg 690 892 0.4;
#X msg 707 915 10;
#X obj 768 145 *~;
#X obj 625 53 inlet~;
#X obj 714 993 *~;
#X text 120 348 chorus1;
#X text 620 349 chorus3;
#X text 870 349 chorus4;
#X text 1115 350 chorus5;
#X text 1370 350 chorus6;
#X obj 755 1035 outlet~;
#X obj 727 53 inlet;
#X text 731 36 0/1;
#X obj 790 53 inlet;
#X text 792 37 c1;
#X obj 840 52 inlet;
#X text 842 36 c2;
#X obj 886 52 inlet;
#X obj 936 51 inlet;
#X obj 984 51 inlet;
#X obj 1034 50 inlet;
#X text 888 36 c3;
#X text 938 35 c4;
#X text 986 35 c5;
#X text 1036 34 c6;
#X obj 513 99 == 1;
#X obj 729 966 == 0;
#X obj 20 367 AllFeature5;
#X obj 270 367 AllFeature6;
#X obj 521 367 AllFeature7;
#X obj 770 366 AllFeature8;
#X obj 1020 366 AllFeature9;
#X obj 1270 366 AllFeature10;
#X obj 656 816 bng 15 250 50 0 empty empty empty 17 7 0 10 -262144
-1 -1;
#X connect 0 0 15 0;
#X connect 1 0 9 0;
#X connect 2 0 1 1;
#X connect 3 0 1 2;
#X connect 4 0 1 3;
#X connect 5 0 1 4;
#X connect 6 0 1 5;
#X connect 7 0 32 0;
#X connect 7 0 33 0;
#X connect 7 0 34 0;
#X connect 7 0 35 0;
#X connect 7 0 36 0;
#X connect 7 0 37 0;
#X connect 8 0 7 0;
#X connect 8 0 1 0;
#X connect 9 0 15 0;
#X connect 16 0 30 0;
#X connect 16 0 31 0;
#X connect 16 0 38 0;
#X connect 18 0 32 1;
#X connect 20 0 33 1;
#X connect 22 0 34 1;
#X connect 23 0 35 1;
#X connect 24 0 36 1;
#X connect 25 0 37 1;
#X connect 30 0 32 3;
#X connect 30 0 33 3;
#X connect 30 0 34 3;
#X connect 30 0 35 3;
#X connect 30 0 36 3;
#X connect 30 0 37 3;
#X connect 30 0 7 1;
#X connect 31 0 9 1;
#X connect 32 0 0 0;
#X connect 33 0 0 0;
#X connect 34 0 0 0;
#X connect 35 0 0 1;
#X connect 36 0 0 1;
#X connect 37 0 0 1;
#X connect 38 0 2 0;
#X connect 38 0 3 0;
#X connect 38 0 4 0;
#X connect 38 0 5 0;
#X connect 38 0 6 0;
#X coords 0 -1 1 1 1530 420 2 10 340;
