#N canvas 524 88 823 644 10;
#X obj 172 44 loadbang;
#X msg 62 155 start;
#X msg 172 143 open speech.wav;
#X obj 172 183 readsf~;
#X obj 142 489 output~;
#X obj 172 96 bng 15 250 50 0 empty empty empty 17 7 0 10 -262144 -1
-1;
#X obj 279 487 wsprobe~;
#X text 352 486 display the waveform and spectrum in real-time;
#X obj 62 127 delay 50;
#X msg 315 95 0;
#X obj 318 138 hsl 128 15 -1000 1000 0 0 empty empty Frequency_Shift
5 -8 0 10 -262144 -1 -1 10500 1;
#X text 281 135 -1000;
#X text 450 132 1000;
#X floatatom 315 173 5 0 0 0 - - -;
#X obj 315 203 sig~;
#X obj 315 235 phasor~;
#X obj 172 317 hilbert~;
#X obj 314 282 cos~;
#X obj 358 284 +~ -0.25;
#X obj 358 319 cos~;
#X obj 172 351 *~;
#X obj 217 349 *~;
#X obj 172 387 -~;
#X obj 432 216 LFO~;
#X obj 172 424 *~;
#X connect 0 0 5 0;
#X connect 0 0 9 0;
#X connect 1 0 3 0;
#X connect 2 0 3 0;
#X connect 3 0 16 0;
#X connect 3 1 5 0;
#X connect 5 0 2 0;
#X connect 5 0 8 0;
#X connect 8 0 1 0;
#X connect 9 0 10 0;
#X connect 10 0 13 0;
#X connect 13 0 14 0;
#X connect 14 0 15 0;
#X connect 15 0 17 0;
#X connect 15 0 18 0;
#X connect 16 0 20 0;
#X connect 16 1 21 0;
#X connect 17 0 20 1;
#X connect 18 0 19 0;
#X connect 19 0 21 1;
#X connect 20 0 22 0;
#X connect 21 0 22 1;
#X connect 22 0 24 0;
#X connect 23 0 24 1;
#X connect 24 0 4 0;
#X connect 24 0 4 1;
#X connect 24 0 6 0;
