#N canvas 488 85 890 691 10;
#X obj 172 44 loadbang;
#X msg 62 155 start;
#X msg 172 143 open speech.wav;
#X obj 172 183 readsf~;
#X obj -99 546 output~;
#X obj 172 96 bng 15 250 50 0 empty empty empty 17 7 0 10 -262144 -1
-1;
#X obj 288 455 wsprobe~;
#X text 361 454 display the waveform and spectrum in real-time;
#X obj 62 127 delay 50;
#X obj 173 384 +~;
#X obj 211 222 delwrite~ delayline 1000;
#X obj 215 260 hsl 128 15 0 1000 0 0 empty empty delay 2 -8 0 10 -262144
-1 -1 900 1;
#X floatatom 212 287 5 0 0 0 - - -;
#X obj 212 319 sig~;
#X obj 212 351 vd~ delayline;
#X text 201 259 0;
#X text 346 258 1000;
#X obj 427 229 LFO~;
#X obj 315 396 *~;
#X obj -108 240 hsl 128 15 0 1 0 0 empty empty Mixer-manipulation_rate
5 -8 0 10 -262144 -1 -1 9800 1;
#X floatatom -111 273 5 0 0 0 - - -;
#X floatatom -19 378 5 0 0 0 - - -;
#X msg -111 203 0;
#X text -125 240 0;
#X text 25 239 1;
#X obj -20 340 -;
#X msg -20 296 1;
#X obj -57 274 bng 15 250 50 0 empty empty empty 17 7 0 10 -262144
-1 -1;
#X obj -127 420 *~;
#X obj -34 411 *~;
#X obj -101 480 +~;
#X connect 0 0 5 0;
#X connect 0 0 22 0;
#X connect 1 0 3 0;
#X connect 2 0 3 0;
#X connect 3 0 9 0;
#X connect 3 0 10 0;
#X connect 3 0 28 0;
#X connect 3 1 5 0;
#X connect 5 0 2 0;
#X connect 5 0 8 0;
#X connect 8 0 1 0;
#X connect 9 0 18 0;
#X connect 11 0 12 0;
#X connect 12 0 13 0;
#X connect 13 0 14 0;
#X connect 14 0 9 1;
#X connect 17 0 18 1;
#X connect 18 0 29 0;
#X connect 19 0 20 0;
#X connect 19 0 27 0;
#X connect 20 0 25 1;
#X connect 20 0 28 1;
#X connect 21 0 29 1;
#X connect 22 0 19 0;
#X connect 25 0 21 0;
#X connect 26 0 25 0;
#X connect 27 0 26 0;
#X connect 28 0 30 0;
#X connect 29 0 30 1;
#X connect 30 0 4 0;
#X connect 30 0 4 1;
