#N canvas 15 55 1262 707 10;
#X obj 530 70 loadbang;
#X msg 420 181 start;
#X msg 530 169 open speech.wav;
#X obj 530 209 readsf~;
#X obj 482 602 output~;
#X obj 530 122 bng 15 250 50 0 empty empty empty 17 7 0 10 -262144
-1 -1;
#X obj 619 600 wsprobe~;
#X obj 420 153 delay 50;
#X msg 673 121 0;
#X obj 676 162 hsl 128 15 -1000 1000 0 0 empty empty Frequency_Shift
5 -8 0 10 -262144 -1 -1 12700 1;
#X text 639 161 -1000;
#X text 808 158 1000;
#X floatatom 673 199 5 0 0 0 - - -;
#X obj 673 229 sig~;
#X obj 673 261 phasor~;
#X obj 530 344 hilbert~;
#X obj 673 297 cos~;
#X obj 740 299 +~ -0.25;
#X obj 740 334 cos~;
#X obj 530 401 *~;
#X obj 632 397 *~;
#X obj 530 431 -~;
#X obj 763 258 wsprobe~;
#X obj 221 196 hsl 128 15 0 1 0 0 empty empty Mixer-manipulation_rate
5 -8 0 10 -262144 -1 -1 6300 1;
#X floatatom 218 229 5 0 0 0 - - -;
#X floatatom 310 334 5 0 0 0 - - -;
#X msg 218 159 0;
#X obj 202 374 *~;
#X obj 295 370 *~;
#X obj 213 452 +~;
#X text 204 196 0;
#X text 354 195 1;
#X obj 309 296 -;
#X msg 309 252 1;
#X obj 272 230 bng 15 250 50 0 empty empty empty 17 7 0 10 -262144
-1 -1;
#X connect 0 0 5 0;
#X connect 0 0 8 0;
#X connect 0 0 26 0;
#X connect 1 0 3 0;
#X connect 2 0 3 0;
#X connect 3 0 15 0;
#X connect 3 0 28 0;
#X connect 3 1 5 0;
#X connect 5 0 2 0;
#X connect 5 0 7 0;
#X connect 7 0 1 0;
#X connect 8 0 9 0;
#X connect 9 0 12 0;
#X connect 12 0 13 0;
#X connect 13 0 14 0;
#X connect 13 0 22 0;
#X connect 14 0 16 0;
#X connect 14 0 17 0;
#X connect 15 0 19 0;
#X connect 15 1 20 0;
#X connect 16 0 19 1;
#X connect 17 0 18 0;
#X connect 18 0 20 1;
#X connect 19 0 21 0;
#X connect 20 0 21 1;
#X connect 21 0 27 0;
#X connect 23 0 24 0;
#X connect 23 0 34 0;
#X connect 24 0 27 1;
#X connect 24 0 32 1;
#X connect 25 0 28 1;
#X connect 26 0 23 0;
#X connect 27 0 29 0;
#X connect 28 0 29 1;
#X connect 29 0 4 0;
#X connect 29 0 4 1;
#X connect 29 0 6 0;
#X connect 32 0 25 0;
#X connect 33 0 32 0;
#X connect 34 0 33 0;
