#N canvas 111 23 1179 651 10;
#X obj 146 462 output~;
#X obj 283 460 wsprobe~;
#X text 356 459 display the waveform and spectrum in real-time;
#X obj 187 240 LFO~;
#X obj 172 405 *~;
#X obj 411 396 output~;
#X obj 536 395 wsprobe~;
#X text 609 394 display the waveform and spectrum in real-time;
#X obj 498 110 LFO~;
#X obj 588 244 sig~;
#X obj 498 272 +~;
#X obj 497 306 *~ 0.5;
#X obj 425 340 *~;
#X obj 172 94 adc~;
#X connect 3 0 4 1;
#X connect 4 0 0 0;
#X connect 4 0 0 1;
#X connect 4 0 1 0;
#X connect 8 0 10 0;
#X connect 8 1 9 0;
#X connect 9 0 10 1;
#X connect 10 0 11 0;
#X connect 11 0 12 1;
#X connect 12 0 5 0;
#X connect 12 0 5 1;
#X connect 12 0 6 0;
#X connect 13 0 4 0;
#X connect 13 0 12 0;
