#N canvas 828 318 897 661 16;
#X obj 291 14 loadbang;
#X obj 291 48 bng 15 250 50 0 empty empty empty 17 7 0 10 -262144 -1
-1;
#X msg 291 121 open speech.wav;
#X obj 176 87 delay 500;
#X msg 176 121 start;
#X obj 291 167 readsf~;
#X obj 317 225 hsl 128 15 0 127 0 0 empty empty empty -2 -8 0 10 -262144
-1 -1 0 1;
#X floatatom 314 245 5 0 0 0 - - -;
#X obj 340 282 hsl 128 15 0 127 0 0 empty empty empty -2 -8 0 10 -262144
-1 -1 0 1;
#X floatatom 337 302 5 0 0 0 - - -;
#X obj 291 352 bp~;
#X obj 290 420 output~;
#X obj 413 419 wsprobe~;
#X text 452 219 centre-frequency;
#X text 477 277 Q;
#X connect 0 0 1 0;
#X connect 1 0 2 0;
#X connect 1 0 3 0;
#X connect 2 0 5 0;
#X connect 3 0 4 0;
#X connect 4 0 5 0;
#X connect 5 0 10 0;
#X connect 5 1 1 0;
#X connect 6 0 7 0;
#X connect 7 0 10 1;
#X connect 8 0 9 0;
#X connect 9 0 10 2;
#X connect 10 0 11 0;
#X connect 10 0 12 0;
