#N canvas 125 93 1179 651 10;
#X obj 172 44 loadbang;
#X msg 62 155 start;
#X msg 172 143 open speech.wav;
#X obj 172 183 readsf~;
#X obj 146 462 output~;
#X obj 172 96 bng 15 250 50 0 empty empty empty 17 7 0 10 -262144 -1
-1;
#X obj 283 460 wsprobe~;
#X text 356 459 display the waveform and spectrum in real-time;
#X obj 62 127 delay 50;
#X obj 187 240 LFO~;
#X obj 172 405 *~;
#X obj 411 396 output~;
#X obj 536 395 wsprobe~;
#X text 609 394 display the waveform and spectrum in real-time;
#X obj 498 110 LFO~;
#X obj 588 244 sig~;
#X obj 498 272 +~;
#X obj 497 306 *~ 0.5;
#X obj 425 340 *~;
#X connect 0 0 5 0;
#X connect 1 0 3 0;
#X connect 2 0 3 0;
#X connect 3 0 10 0;
#X connect 3 0 18 0;
#X connect 3 1 5 0;
#X connect 5 0 2 0;
#X connect 5 0 8 0;
#X connect 8 0 1 0;
#X connect 9 0 10 1;
#X connect 10 0 4 0;
#X connect 10 0 4 1;
#X connect 10 0 6 0;
#X connect 14 0 16 0;
#X connect 14 1 15 0;
#X connect 15 0 16 1;
#X connect 16 0 17 0;
#X connect 17 0 18 1;
#X connect 18 0 11 0;
#X connect 18 0 11 1;
#X connect 18 0 12 0;
