#N canvas 90 134 975 626 10;
#X obj 385 169 AllFeatures~;
#X obj 382 487 wsprobe~;
#X obj 384 81 osc~;
#X obj 384 8 loadbang;
#X floatatom 384 43 5 0 0 0 - - -;
#X connect 0 0 1 0;
#X connect 2 0 0 0;
#X connect 3 0 4 0;
#X connect 4 0 2 0;
