#N canvas 132 223 823 644 10;
#X obj 315 60 loadbang;
#X msg 315 95 0;
#X obj 318 138 hsl 128 15 -1000 1000 0 0 empty empty Frequency_Shift
5 -8 0 10 -262144 -1 -1 6350 1;
#X text 281 135 -1000;
#X text 450 132 1000;
#X floatatom 315 173 5 0 0 0 - - -;
#X obj 315 203 sig~;
#X obj 315 235 phasor~;
#X obj 172 317 hilbert~;
#X obj 314 282 cos~;
#X obj 358 284 +~ -0.25;
#X obj 358 319 cos~;
#X obj 172 351 *~;
#X obj 217 349 *~;
#X obj 172 387 -~;
#X obj 432 216 LFO~;
#X obj 172 424 *~;
#X obj 174 22 inlet~;
#X obj 172 467 outlet~;
#X obj 314 22 inlet;
#X text 311 7 frequency shift;
#X obj 431 21 inlet;
#X text 429 6 speed;
#X obj 548 23 inlet;
#X text 545 9 depth;
#X text 173 7 input audio;
#X connect 0 0 1 0;
#X connect 1 0 2 0;
#X connect 2 0 5 0;
#X connect 5 0 6 0;
#X connect 6 0 7 0;
#X connect 7 0 9 0;
#X connect 7 0 10 0;
#X connect 8 0 12 0;
#X connect 8 1 13 0;
#X connect 9 0 12 1;
#X connect 10 0 11 0;
#X connect 11 0 13 1;
#X connect 12 0 14 0;
#X connect 13 0 14 1;
#X connect 14 0 16 0;
#X connect 15 0 16 1;
#X connect 16 0 18 0;
#X connect 17 0 8 0;
#X connect 19 0 2 0;
#X connect 21 0 15 0;
#X connect 23 0 15 1;
