#N canvas 389 146 1619 1006 10;
#X obj 177 422 AllFeatures~;
#X obj 427 346 19ChannelEqualiser~;
#X obj 552 -7 r~ eqAudio;
#X obj 85 795 s~ eqAudio;
#X obj 177 846 RecordSave;
#X obj 177 63 InputAudio;
#X obj 177 158 Volumn~;
#X text 186 72 Input Setting:;
#X obj 43 783 r~ out;
#X obj 110 844 s~ out;
#X obj 177 797 OutVolumn~;
#X obj 177 203 ExampleSound;
#X obj 273 844 output~;
#X obj 91 312 s~ example;
#X obj 408 -7 r~ example;
#X obj 498 17 +~;
#X obj 98 420 s~ effect;
#X obj 483 -7 r~ effect;
#X obj 177 312 SoundEffect~;
#X obj 505 62 Waveform~;
#X obj 428 20 s~ mixer;
#X obj 505 38 r~ mixer;
#X obj 89 157 s~ original;
#X obj 427 40 r~ original;
#X obj 427 62 Mix~;
#X connect 0 0 3 0;
#X connect 1 0 9 0;
#X connect 1 0 12 0;
#X connect 1 0 12 1;
#X connect 1 0 4 0;
#X connect 2 0 15 1;
#X connect 5 0 6 0;
#X connect 5 0 22 0;
#X connect 6 0 11 0;
#X connect 6 0 0 0;
#X connect 8 0 10 0;
#X connect 11 0 13 0;
#X connect 14 0 15 0;
#X connect 15 0 24 1;
#X connect 17 0 15 0;
#X connect 18 0 16 0;
#X connect 21 0 19 0;
#X connect 23 0 24 0;
#X connect 24 0 1 0;
#X connect 24 0 20 0;
