#N canvas 268 55 1281 957 10;
#X text 446 -112 Live input;
#X text 445 -92 File input;
#X obj 417 -114 vradio 20 1 0 2 empty empty empty 0 -8 0 10 -262144
-1 -1 0;
#X text 444 -18 Lord of the Rings - Gollum;
#X text 443 2 Star Wars - C3PO;
#X text 443 22 Dr. Who - Daleks;
#X obj 417 -21 vradio 20 1 0 4 empty empty empty 0 -8 0 10 -262144
-1 -1 0;
#X text 443 40 None;
#X text 415 -136 input setting:;
#X text 414 73 Draft Feature:;
#X obj 418 96 vradio 20 1 0 2 empty empty empty 0 -8 0 10 -262144 -1
-1 0;
#X text 443 117 None;
#X text 443 96 Underwater;
#X obj 666 -125 LFO~;
#X msg 525 -92 open speech.wav;
#X text 413 -42 example sound:;
#X obj 256 -8 == 0;
#X obj 161 -8 == 1;
#X text 164 -25 File Input;
#X text 257 -24 Live Input;
#X obj 97 9 *~;
#X obj 226 18 adc~;
#X obj 241 50 *~;
#X floatatom 161 -58 5 0 0 0 - - -;
#X msg 97 -54 start;
#X obj 97 -23 readsf~;
#X obj 97 -119 bng 15 250 50 0 empty empty empty 17 7 0 10 -262144
-1 -1;
#X obj 97 -81 delay 50;
#X obj 99 118 s~ audio;
#X obj 453 389 Mixer~;
#X obj 417 167 tgl 25 0 empty empty empty 17 7 0 10 -262144 -1 -1 0
1;
#X text 413 148 Advanced Mode;
#X obj 666 119 Delay~;
#X obj 923 -123 Scale;
#X text 414 205 Reset All;
#X obj 341 267 s reset;
#X obj 1187 -29 r reset;
#X obj 975 429 r reset;
#X obj 1184 56 r reset;
#X obj 416 228 bng 25 250 50 0 empty empty empty 17 7 0 10 -262144
-1 -1;
#X obj 1193 -164 r reset;
#X obj 926 -167 r reset;
#X obj 923 -39 s~ lfo;
#X obj 666 31 FrequencyShift~;
#X obj 117 435 r~ audio;
#X obj 118 510 AllFeatures~;
#X obj 119 801 output~;
#X obj 344 -155 loadbang;
#X obj 225 -87 bng 15 250 50 0 empty empty empty 17 7 0 10 -262144
-1 -1;
#X connect 2 0 23 0;
#X connect 13 0 33 0;
#X connect 14 0 25 0;
#X connect 16 0 22 1;
#X connect 16 0 48 0;
#X connect 17 0 20 1;
#X connect 20 0 28 0;
#X connect 21 0 22 0;
#X connect 22 0 28 0;
#X connect 23 0 16 0;
#X connect 23 0 17 0;
#X connect 23 0 26 0;
#X connect 24 0 25 0;
#X connect 25 0 20 0;
#X connect 25 1 26 0;
#X connect 26 0 27 0;
#X connect 26 0 14 0;
#X connect 27 0 24 0;
#X connect 33 0 42 0;
#X connect 36 0 43 2;
#X connect 37 0 29 3;
#X connect 38 0 32 2;
#X connect 39 0 35 0;
#X connect 40 0 33 2;
#X connect 41 0 13 2;
#X connect 44 0 45 0;
#X connect 45 0 46 0;
#X connect 45 0 46 1;
#X connect 47 0 2 0;
#X connect 47 0 48 0;
#X connect 48 0 21 0;
