#N canvas 234 224 1118 662 10;
#N canvas 61 22 450 300 (subpatch) 0;
#X array \$0-Waveform 3528 float 0;
#X coords 0 1 3527 -1 565 200 2 0 0;
#X restore 146 166 graph;
#X obj 950 62 inlet~;
#X text 951 41 AUDIO;
#X obj 855 62 loadbang;
#X obj 855 123 metro 100;
#X obj 114 168 vsl 20 175 0.1 10 0 0 empty empty empty 0 -9 0 10 -261234
-13381 -1 1230 1;
#X obj 951 154 *~;
#X obj 952 182 clip~ -1 1;
#X obj 864 96 bng 15 250 50 0 empty empty empty 17 7 0 10 -262144 -1
-1;
#X msg 1026 311 441;
#X msg 1026 333 882;
#X text 1058 333 <= 20 msecs;
#X msg 1026 355 1764;
#X text 1058 355 <= 40 msecs;
#X msg 1026 377 3528;
#X text 1058 377 <= 80 msecs;
#X text 1058 289 <= 5 msecs;
#X text 1058 310 <= 10 msecs;
#X msg 1026 244 44.1;
#X text 1058 244 <= 1 msecs;
#X msg 1026 289 220;
#X text 1058 266 <= 2 msecs;
#X msg 1026 267 88.2;
#X obj 497 125 hradio 25 1 0 7 empty empty empty 0 -8 0 10 -262130
-203904 -1 6;
#X obj 841 317 select 0 1 2 3 4 5 6;
#X obj 1043 60 inlet;
#X text 1037 39 SNAPSHOT;
#X obj 855 173 t b b;
#X obj 249 123 tgl 25 0 empty empty empty 17 7 0 10 -204786 -1 -1 1
1;
#X obj 855 148 spigot;
#X obj 356 123 bng 25 250 50 0 empty empty empty 17 7 0 10 -231389
-1 -1;
#X text 112 114 Waveform:;
#X floatatom 110 351 5 0 0 0 - - -;
#X text 173 134 Continuous->;
#X text 292 135 Snapshot->;
#X text 426 135 Timescale->;
#X text 676 132 msecs;
#X text 504 130 1;
#X text 529 131 2;
#X text 554 131 5;
#X text 575 131 10;
#X text 602 130 20;
#X text 626 130 40;
#X text 651 131 80;
#X msg 498 79 4;
#X text 116 166 10;
#X text 114 332 0.1;
#X msg 805 109 0.8;
#X obj 952 209 tabwrite~ \$0-Waveform;
#X obj 949 441 s \$0-Waveform;
#X msg 949 408 resize \$1;
#X connect 1 0 6 0;
#X connect 3 0 4 0;
#X connect 3 0 47 0;
#X connect 3 0 44 0;
#X connect 3 0 28 0;
#X connect 4 0 29 0;
#X connect 5 0 6 1;
#X connect 5 0 32 0;
#X connect 6 0 7 0;
#X connect 7 0 48 0;
#X connect 8 0 4 0;
#X connect 9 0 50 0;
#X connect 10 0 50 0;
#X connect 12 0 50 0;
#X connect 14 0 50 0;
#X connect 18 0 50 0;
#X connect 20 0 50 0;
#X connect 22 0 50 0;
#X connect 23 0 24 0;
#X connect 24 0 18 0;
#X connect 24 1 22 0;
#X connect 24 2 20 0;
#X connect 24 3 9 0;
#X connect 24 4 10 0;
#X connect 24 5 12 0;
#X connect 24 6 14 0;
#X connect 25 0 27 0;
#X connect 27 1 48 0;
#X connect 28 0 29 1;
#X connect 29 0 27 0;
#X connect 30 0 27 0;
#X connect 44 0 23 0;
#X connect 47 0 5 0;
#X connect 50 0 49 0;
#X coords 0 -1 1 1 622 284 2 100 100;
